<svg width="22" height="22" viewBox="0 0 22 22" fill="#FFFFFF" xmlns="http://www.w3.org/2000/svg">
    <path
        d="M14.3017 13.2357L14.6633 7.56257L8.9921 7.1715C8.93354 7.15958 8.87309 7.16038 8.81487 7.17385C8.75664 7.18731 8.70198 7.21314 8.6546 7.24956C8.60722 7.28599 8.56822 7.33217 8.54024 7.38498C8.51225 7.43779 8.49595 7.496 8.49242 7.55566C8.48889 7.61532 8.49821 7.67505 8.51977 7.73079C8.54133 7.78653 8.57461 7.83699 8.61737 7.87875C8.66012 7.92052 8.71135 7.9526 8.76758 7.97284C8.82382 7.99309 8.88374 8.00101 8.9433 7.99608L13.1926 8.29576L7.18801 13.5531C7.10476 13.626 7.05388 13.729 7.04655 13.8394C7.03922 13.9498 7.07606 14.0586 7.14894 14.1418C7.22183 14.2251 7.3248 14.2759 7.43521 14.2833C7.54561 14.2906 7.6544 14.2538 7.73765 14.1809L13.7422 8.92352L13.4779 13.1751C13.4709 13.2856 13.5082 13.3944 13.5814 13.4774C13.6546 13.5604 13.7578 13.611 13.8683 13.6179C13.9788 13.6249 14.0875 13.5876 14.1706 13.5144C14.2536 13.4412 14.3041 13.338 14.3111 13.2275L14.3017 13.2357Z"
        fill="#FFFFFF" />
</svg>