<svg width="24" height="24" viewBox="0 0 24 24" fill="none" xmlns="http://www.w3.org/2000/svg">
<g clip-path="url(#clip0_13_10)">
<path d="M23.63 4.66668C23.168 3.87268 22.318 3.33334 21.3333 3.33334H12V4.66668H23.63ZM0 16.6667H24V18H0V16.6667ZM12 11.3333H24V12.6667H12V11.3333ZM12 8.66668H24V10H12V8.66668ZM0 14H24V15.3333H0V14ZM2.66667 20.6667H21.3333C22.318 20.6667 23.168 20.1273 23.63 19.3333H0.37C0.832 20.1273 1.682 20.6667 2.66667 20.6667ZM12 6.00001H24V7.33334H12V6.00001Z" fill="#B22334"/>
<path d="M0.0453333 18.4527C0.0566667 18.5147 0.0693333 18.5767 0.0846667 18.6373C0.102 18.7047 0.123333 18.7693 0.146 18.8347C0.205333 19.0073 0.277333 19.174 0.368 19.33L0.37 19.3333H23.63L23.6313 19.3307C23.7208 19.1735 23.7949 19.0081 23.8527 18.8367C23.8966 18.7115 23.9305 18.5831 23.954 18.4527C23.9813 18.306 24 18.1553 24 18H0C0 18.1553 0.0186667 18.3053 0.0453333 18.4527ZM0 15.3333H24V16.6667H0V15.3333ZM0 12.6667V14H24V12.6667H12H0ZM12 9.99999H24V11.3333H12V9.99999ZM12 7.33332H24V8.66666H12V7.33332ZM0.0853333 5.36266C0.102 5.29466 0.125333 5.22999 0.146667 5.16466C0.123515 5.22979 0.103054 5.29584 0.0853333 5.36266ZM12 5.99999H24C24 5.84466 23.9813 5.69399 23.954 5.54666C23.9307 5.41606 23.8965 5.28762 23.852 5.16266C23.7942 4.99053 23.7199 4.82442 23.63 4.66666H12V5.99999Z" fill="#EEEEEE"/>
<path d="M12 3.33334H2.66667C1.95942 3.33334 1.28115 3.61429 0.781049 4.11439C0.280952 4.61449 0 5.29277 0 6.00001L0 12.6667H12V3.33334Z" fill="#3C3B6E"/>
<path d="M1.334 5.15066L1.746 5.44999L1.58867 5.93332L2 5.63466L2.412 5.93332L2.25467 5.44999L2.66667 5.15066H2.15733L2 4.66666L1.84333 5.15066H1.334ZM2.66733 6.48399L3.07933 6.78332L2.922 7.26666L3.33333 6.96799L3.74533 7.26666L3.588 6.78332L4 6.48399H3.49067L3.33333 5.99999L3.17667 6.48399H2.66733ZM5.334 6.48399L5.746 6.78332L5.58867 7.26666L6 6.96799L6.412 7.26666L6.25467 6.78332L6.66667 6.48399H6.15733L6 5.99999L5.84333 6.48399H5.334ZM8.00067 6.48399L8.41267 6.78332L8.25533 7.26666L8.66667 6.96799L9.07867 7.26666L8.92133 6.78332L9.33333 6.48399H8.824L8.66667 5.99999L8.51 6.48399H8.00067ZM2.66733 9.15066L3.07933 9.44999L2.922 9.93332L3.33333 9.63466L3.74533 9.93332L3.588 9.44999L4 9.15066H3.49067L3.33333 8.66666L3.17667 9.15066H2.66733ZM5.334 9.15066L5.746 9.44999L5.58867 9.93332L6 9.63466L6.412 9.93332L6.25467 9.44999L6.66667 9.15066H6.15733L6 8.66666L5.84333 9.15066H5.334ZM8.00067 9.15066L8.41267 9.44999L8.25533 9.93332L8.66667 9.63466L9.07867 9.93332L8.92133 9.44999L9.33333 9.15066H8.824L8.66667 8.66666L8.51 9.15066H8.00067ZM4.00067 5.15066L4.41267 5.44999L4.25533 5.93332L4.66667 5.63466L5.07867 5.93332L4.92133 5.44999L5.33333 5.15066H4.824L4.66667 4.66666L4.51 5.15066H4.00067ZM6.66733 5.15066L7.07933 5.44999L6.922 5.93332L7.33333 5.63466L7.74533 5.93332L7.588 5.44999L8 5.15066H7.49067L7.33333 4.66666L7.17667 5.15066H6.66733ZM9.334 5.15066L9.746 5.44999L9.58867 5.93332L10 5.63466L10.412 5.93332L10.2547 5.44999L10.6667 5.15066H10.1573L10 4.66666L9.84333 5.15066H9.334ZM1.334 7.81732L1.746 8.11666L1.58867 8.59999L2 8.30132L2.412 8.59999L2.25467 8.11666L2.66667 7.81732H2.15733L2 7.33332L1.84333 7.81732H1.334ZM4.25533 8.59999L4.66667 8.30132L5.07867 8.59999L4.92133 8.11666L5.33333 7.81732H4.824L4.66667 7.33332L4.51 7.81732H4.00067L4.41267 8.11666L4.25533 8.59999ZM6.66733 7.81732L7.07933 8.11666L6.922 8.59999L7.33333 8.30132L7.74533 8.59999L7.588 8.11666L8 7.81732H7.49067L7.33333 7.33332L7.17667 7.81732H6.66733ZM9.334 7.81732L9.746 8.11666L9.58867 8.59999L10 8.30132L10.412 8.59999L10.2547 8.11666L10.6667 7.81732H10.1573L10 7.33332L9.84333 7.81732H9.334ZM1.334 10.484L1.746 10.7833L1.58867 11.2667L2 10.968L2.412 11.2667L2.25467 10.7833L2.66667 10.484H2.15733L2 9.99999L1.84333 10.484H1.334ZM4.25533 11.2667L4.66667 10.968L5.07867 11.2667L4.92133 10.7833L5.33333 10.484H4.824L4.66667 9.99999L4.51 10.484H4.00067L4.41267 10.7833L4.25533 11.2667ZM6.66733 10.484L7.07933 10.7833L6.922 11.2667L7.33333 10.968L7.74533 11.2667L7.588 10.7833L8 10.484H7.49067L7.33333 9.99999L7.17667 10.484H6.66733ZM9.334 10.484L9.746 10.7833L9.58867 11.2667L10 10.968L10.412 11.2667L10.2547 10.7833L10.6667 10.484H10.1573L10 9.99999L9.84333 10.484H9.334Z" fill="white"/>
</g>
<defs>
<clipPath id="clip0_13_10">
<rect width="24" height="24" fill="white"/>
</clipPath>
</defs>
</svg>
