<svg width="24" height="24" viewBox="0 0 24 24" fill="#94a3b8" xmlns="http://www.w3.org/2000/svg">
    <path fill="#94a3b8"
        d="M11.9981 0C11.1341 0 10.3161 0.11 9.85406 0.193V0.195C7.08622 0.684094 4.57994 2.13475 2.77716 4.29117C0.97438 6.44759 -0.00912579 9.17129 6.382e-05 11.982C6.382e-05 13.108 0.157064 14.215 0.465064 15.285C0.503064 15.43 0.556064 15.584 0.602064 15.732C2.20906 20.597 6.82606 23.958 11.9941 23.96C12.0591 23.96 12.2461 23.96 12.4961 23.949C12.9179 23.9298 13.3255 23.7908 13.6711 23.5481C14.0166 23.3054 14.2858 22.9693 14.4471 22.579L14.9211 21.425L20.4261 8.023H18.6201L16.3041 13.894L13.9701 8.023H12.0611L15.3351 16.035L12.8991 21.945C12.8604 22.0401 12.7955 22.1222 12.7119 22.1817C12.6283 22.2412 12.5295 22.2756 12.4271 22.281C12.2831 22.286 12.1421 22.291 11.9951 22.291C7.41006 22.291 3.32806 19.221 2.06706 14.826C1.80225 13.9012 1.66828 12.9439 1.66906 11.982C1.66189 9.54202 2.52368 7.17919 4.10007 5.31678C5.67645 3.45436 7.86443 2.21404 10.2721 1.818C10.4941 1.781 11.1611 1.673 11.9971 1.673C16.4141 1.673 20.2661 4.405 21.7271 8.521C21.7831 8.665 21.8251 8.814 21.8741 8.961C22.1731 9.935 22.3271 10.949 22.3271 11.982C22.3357 14.1952 21.6277 16.3517 20.309 18.1292C18.9903 19.9066 17.1317 21.2095 15.0111 21.843L15.4971 23.443C20.5821 21.897 23.9971 17.291 23.9991 11.983C23.9991 10.435 23.7011 9.113 23.3491 8.091L23.2181 7.728H23.2161C21.4571 3.075 17.0441 0 11.9981 0ZM8.43406 7.87C7.23406 7.87 6.25906 8.256 5.45406 9.046C4.65206 9.832 4.24806 10.82 4.24806 11.982C4.24806 13.136 4.65506 14.119 5.45306 14.902C6.25906 15.692 7.23306 16.076 8.43306 16.076C10.1391 16.076 11.5891 15.121 12.2211 13.587L12.2541 13.505L10.6251 12.951C10.4571 13.407 9.87006 14.439 8.43406 14.439C7.75906 14.439 7.19006 14.205 6.74006 13.739C6.28306 13.269 6.05306 12.677 6.05306 11.982C6.05306 11.282 6.27806 10.702 6.74006 10.209C7.19206 9.744 7.76006 9.507 8.43406 9.507C9.87206 9.507 10.4571 10.589 10.6271 10.996L12.2541 10.443L12.2211 10.359C11.5911 8.823 10.1391 7.87 8.43406 7.87Z" />
</svg>