<svg width="19" height="21" viewBox="0 0 19 21" fill="#FFFFFF" xmlns="http://www.w3.org/2000/svg">
    <g clip-path="url(#clip0_1_29)">
        <path fill="#FFFFFF"
            d="M10.2337 7.69917L7.54794 0H18.9583L16.2633 7.72156C16.1473 7.74851 16.0333 7.78283 15.922 7.8243L13.2597 2.54842L10.5896 7.79309C10.4733 7.75399 10.3544 7.72261 10.2337 7.69917ZM1.45878 20.3024C5.04771 22.7513 9.02855 18.0128 14.451 17.4158C17.5649 17.2366 19.6814 15.3848 18.4754 12.5182C16.2332 13.8598 14.1377 12.1018 14.1523 10.3377H12.4486C12.3926 11.9127 11.1731 13.1517 9.28277 12.9675C7.80314 15.1178 6.08824 16.3259 4.14238 16.94C2.8272 16.3504 1.58954 14.9142 2.15068 12.996C1.9065 12.9695 1.66712 12.9112 1.43902 12.8225C-0.369863 16.1037 -0.593387 18.6969 1.45878 20.3024ZM4.13065 10.3379C4.13065 9.09169 2.73229 8.30858 1.61969 8.93169C0.507093 9.55479 0.507008 11.1211 1.61969 11.7442C2.73229 12.3673 4.13065 11.5842 4.13065 10.3379ZM11.3679 10.3225C11.3679 9.07627 9.96947 8.29311 8.85688 8.91626C7.74428 9.53941 7.74424 11.1056 8.85688 11.7287C9.96952 12.3519 11.3678 11.5687 11.3678 10.3225M18.5779 10.3225C18.5779 9.07627 17.1795 8.29311 16.0669 8.91626C14.9543 9.53941 14.9542 11.1056 16.0669 11.7287C17.1795 12.3519 18.5778 11.5687 18.5778 10.3225" />
    </g>
    <defs>
        <clipPath id="clip0_1_29">
            <rect width="19" height="21" fill="white" />
        </clipPath>
    </defs>
</svg>