<svg width="28" height="21" viewBox="0 0 28 21" fill="#FFFFFF" xmlns="http://www.w3.org/2000/svg">
    <path fill="#FFFFFF"
        d="M13.2055 15.8763C13.1924 15.9025 13.1792 15.9235 13.2055 15.8763ZM24.1051 12.0703C23.2251 12.07 22.3569 12.2721 21.5675 12.6609C21.3094 12.1403 21.0425 11.6854 20.9988 11.3441C20.9463 10.946 20.8894 10.7098 20.9507 10.2374C21.0119 9.76489 21.2875 9.09557 21.2832 9.04745C21.2788 8.99933 21.2219 8.75873 20.6575 8.75435C20.0931 8.74998 19.6075 8.86372 19.5511 9.01245C19.4514 9.28427 19.3738 9.5637 19.3192 9.84801C19.2186 10.3598 18.1909 12.1884 17.609 13.1421C17.4165 12.7703 17.2546 12.4422 17.2196 12.1797C17.1671 11.7816 17.1102 11.5454 17.1715 11.0729C17.2327 10.6005 17.5084 9.93113 17.504 9.88301C17.4996 9.83489 17.4427 9.59428 16.8788 9.58991C16.3148 9.58553 15.8288 9.69927 15.7719 9.84801C15.715 9.99675 15.6538 10.3467 15.54 10.6836C15.4263 11.0204 14.0573 14.0652 13.699 14.857C13.5153 15.2594 13.3577 15.5832 13.244 15.8019C13.2265 15.8369 13.2134 15.8588 13.2046 15.8763C13.2177 15.8544 13.2265 15.8325 13.2265 15.8413C13.1302 16.0294 13.0734 16.1344 13.0734 16.1344V16.1387C12.999 16.2787 12.9159 16.4056 12.8765 16.4056C12.8502 16.4056 12.7934 16.0381 12.8896 15.535C13.0952 14.4764 13.5809 12.8315 13.5765 12.7746C13.5721 12.744 13.6684 12.4597 13.2571 12.3066C12.859 12.1622 12.7146 12.4028 12.6796 12.4028C12.6446 12.4028 12.6184 12.4903 12.6184 12.4903C12.6184 12.4903 13.0602 10.6354 11.77 10.6354C10.965 10.6354 9.84502 11.5191 9.29464 12.3197C8.94901 12.5078 8.20088 12.9146 7.41337 13.3477C7.11149 13.514 6.80086 13.6846 6.50773 13.8464C6.48586 13.8246 6.46836 13.8027 6.44648 13.7808C4.88065 12.1097 1.98962 10.9285 2.11212 8.68436C2.15587 7.8663 2.44025 5.71835 7.6715 3.11106C11.959 0.976235 15.3869 1.56244 15.9771 2.86608C16.8259 4.7253 14.1444 8.18565 9.69189 8.68436C7.99481 8.87247 7.10274 8.21627 6.87961 7.97129C6.64773 7.71319 6.61273 7.70006 6.52523 7.74818C6.38086 7.82693 6.47273 8.05441 6.52523 8.19002C6.65648 8.53562 7.20337 9.14807 8.13481 9.45429C8.95295 9.72115 10.9427 9.86989 13.3486 8.93809C16.0515 7.89692 18.1554 4.99653 17.5385 2.56861C16.9103 0.101306 12.8187 -0.708003 8.94989 0.665635C6.64467 1.48369 4.15177 2.76984 2.35843 4.44533C0.228222 6.44016 -0.112595 8.1769 0.0274069 8.90309C0.525725 11.4798 4.07739 13.1596 5.49885 14.402C5.42884 14.4414 5.36322 14.4764 5.30197 14.5114C4.58927 14.8657 1.88155 16.2831 1.20386 17.7792C0.438224 19.4766 1.33073 20.6928 1.91655 20.859C3.74489 21.3664 5.61697 20.4521 6.6228 18.9516C7.62862 17.4511 7.50656 15.4913 7.0428 14.5989C7.03843 14.5858 7.02968 14.577 7.0253 14.5639C7.20905 14.4545 7.39718 14.3451 7.58531 14.2358C7.948 14.0214 8.30238 13.8246 8.61301 13.654C8.438 14.1264 8.31113 14.6951 8.2455 15.5175C8.16675 16.48 8.56488 17.7267 9.08114 18.2167C9.30864 18.4311 9.58383 18.4354 9.75446 18.4354C10.3582 18.4354 10.6295 17.9367 10.9309 17.3418C11.3028 16.6156 11.6309 15.7713 11.6309 15.7713C11.6309 15.7713 11.2197 18.0548 12.344 18.0548C12.7549 18.0548 13.1661 17.5255 13.3503 17.2543V17.2587C13.3503 17.2587 13.3591 17.2412 13.3809 17.2062C13.4247 17.1405 13.4466 17.1012 13.4466 17.1012V17.088C13.6128 16.8037 13.9759 16.1519 14.5224 15.0757C15.2311 13.6846 15.9088 11.9478 15.9088 11.9478C15.9743 12.3296 16.0649 12.7067 16.1801 13.0765C16.3026 13.4921 16.5607 13.9471 16.7664 14.3889C16.6001 14.6164 16.4995 14.7476 16.4995 14.7476C16.4998 14.751 16.5014 14.7541 16.5038 14.7564C16.3726 14.9313 16.2238 15.1195 16.0707 15.3032C15.5111 15.9681 14.8457 16.7293 14.7582 16.9481C14.6532 17.2062 14.6795 17.3986 14.8807 17.5474C15.0295 17.6611 15.292 17.6786 15.5672 17.6567C16.0703 17.6218 16.4247 17.4993 16.5953 17.4205C16.9098 17.3077 17.2071 17.1517 17.4786 16.9568C18.0255 16.5543 18.358 15.9769 18.3274 15.2157C18.3099 14.7957 18.1742 14.3758 18.008 13.982C18.0561 13.9121 18.1086 13.8377 18.1567 13.7633C19.0226 12.499 19.6919 11.1114 19.6919 11.1114C19.7574 11.4932 19.848 11.8702 19.9632 12.2401C20.0682 12.5944 20.2734 12.9838 20.4615 13.3644C19.6482 14.0249 19.1451 14.7905 18.9701 15.2936C18.6463 16.2254 18.9001 16.6453 19.3769 16.7416C19.5913 16.7853 19.8976 16.6847 20.1251 16.5885C20.463 16.4759 20.7815 16.3122 21.0697 16.1029C21.6165 15.7004 22.1455 15.1361 22.1105 14.3705C22.0974 14.0249 22.0011 13.6793 21.8742 13.3469C22.5611 13.0581 23.4532 12.9006 24.5907 13.0319C27.0267 13.3162 27.5036 14.8386 27.4117 15.4729C27.3199 16.1073 26.808 16.4616 26.6373 16.5666C26.4667 16.6716 26.4142 16.711 26.4273 16.7897C26.4492 16.9034 26.528 16.8991 26.6723 16.8728C26.8736 16.8378 27.9494 16.3566 27.9975 15.1798C28.0675 13.6924 26.6373 12.0563 24.1038 12.0695L24.1051 12.0703ZM5.32822 18.4004C4.52365 19.2797 3.39488 19.6122 2.90969 19.3322C2.38906 19.0295 2.59469 17.7355 3.58739 16.7984C4.19114 16.2297 4.96946 15.7048 5.48572 15.3811C5.60385 15.3111 5.77447 15.2061 5.98448 15.0792C6.01948 15.0573 6.03698 15.0486 6.03698 15.0486C6.07635 15.0223 6.1201 15.0005 6.16385 14.9742C6.52654 16.3041 6.17698 17.4765 5.32822 18.3996V18.4004ZM11.2065 14.402C10.9265 15.0888 10.3363 16.8387 9.97758 16.7468C9.67133 16.6681 9.4832 15.3338 9.91633 14.0214C10.1351 13.3608 10.5988 12.5734 10.8745 12.2672C11.3159 11.7729 11.8015 11.6154 11.9153 11.8122C12.0684 12.0703 11.3815 13.9733 11.2065 14.402ZM16.0628 16.7206C15.9447 16.7818 15.8353 16.8212 15.7828 16.7906C15.7435 16.7687 15.831 16.6856 15.831 16.6856C15.831 16.6856 16.4391 16.0338 16.6797 15.7363C16.8197 15.5613 16.9816 15.3557 17.1562 15.1282C17.1562 15.1501 17.1605 15.172 17.1605 15.1982C17.1549 15.9813 16.4028 16.5106 16.0615 16.7206H16.0628ZM19.807 15.8675C19.7195 15.8063 19.7326 15.6007 20.0258 14.962C20.1395 14.7126 20.4016 14.2926 20.857 13.8902C20.9086 14.0425 20.9366 14.2018 20.9402 14.3626C20.9358 15.3469 20.2314 15.7144 19.8074 15.8675H19.807Z" />
</svg>