<svg width="20" height="24" viewBox="0 0 20 24" fill="#94a3b8" xmlns="http://www.w3.org/2000/svg">
    <path fill="#94a3b8"
        d="M14.3392 0.242604L14.2192 2.9526C14.2177 2.98688 14.2261 3.02086 14.2433 3.05054C14.2605 3.08022 14.2858 3.10437 14.3163 3.12013C14.3468 3.13589 14.3811 3.14262 14.4153 3.13951C14.4495 3.13641 14.482 3.1236 14.5092 3.1026L15.5692 2.3026L16.4692 3.0026C16.4956 3.02032 16.5262 3.03072 16.558 3.03274C16.5897 3.03476 16.6215 3.02833 16.6499 3.0141C16.6784 2.99987 16.7025 2.97836 16.72 2.95175C16.7374 2.92513 16.7475 2.89437 16.7492 2.8626L16.6492 0.102604L17.9792 0.00260352C18.1433 -0.00822385 18.3078 0.0147964 18.4627 0.0702351C18.6175 0.125674 18.7593 0.212348 18.8792 0.324876C18.9992 0.437404 19.0947 0.573384 19.1599 0.724375C19.2251 0.875365 19.2585 1.03814 19.2582 1.2026V22.7986C19.2584 22.9614 19.2255 23.1225 19.1614 23.2721C19.0974 23.4218 19.0036 23.5568 18.8857 23.6691C18.7679 23.7813 18.6284 23.8684 18.4758 23.9251C18.3232 23.9817 18.1607 24.0067 17.9982 23.9986L1.90216 23.2786C1.59944 23.2661 1.31264 23.1396 1.09933 22.9245C0.886023 22.7093 0.762 22.4214 0.752157 22.1186L0.00215716 2.3216C-0.00730801 2.16396 0.0144384 2.00599 0.0661492 1.85677C0.11786 1.70755 0.198518 1.57 0.303498 1.45201C0.408479 1.33402 0.535717 1.23792 0.677916 1.16921C0.820116 1.1005 0.97448 1.06053 1.13216 1.0516L14.3292 0.221604L14.3392 0.242604ZM11.2692 9.2996C11.2692 9.7696 14.4292 9.5396 14.8592 9.2196C14.8592 6.0196 13.1392 4.3296 10.0002 4.3296C6.85016 4.3296 5.10116 6.0496 5.10116 8.6196C5.10116 13.0696 11.1002 13.1496 11.1002 15.5786C11.1002 16.2786 10.7802 16.6786 10.0502 16.6786C9.09016 16.6786 8.70016 16.1886 8.75016 14.5186C8.75016 14.1586 5.10116 14.0386 4.98116 14.5186C4.71116 18.5486 7.21116 19.7186 10.0802 19.7186C12.8702 19.7186 15.0492 18.2286 15.0492 15.5386C15.0492 10.7686 8.95016 10.8986 8.95016 8.5396C8.95016 7.5696 9.67016 7.4396 10.0802 7.4396C10.5302 7.4396 11.3302 7.5096 11.2702 9.3096L11.2692 9.2996Z" />
</svg>