<svg width="30" height="31" viewBox="0 0 30 31" fill="none" xmlns="http://www.w3.org/2000/svg">
<rect width="30" height="31" rx="8" fill="#122B39"/>
<path d="M15.0127 9.42857C11.4559 9.42857 8.57507 12.1455 8.57507 15.5C8.57507 18.8545 11.4559 21.5714 15.0127 21.5714C18.1269 21.5714 20.7262 19.4844 21.3216 16.7143H16.3003C15.5881 16.7143 15.0127 16.1717 15.0127 15.5C15.0127 14.8283 15.5881 14.2857 16.3003 14.2857H22.0942C23.1322 14.2857 24.0898 15.0978 23.9933 16.2058C23.6151 20.5696 19.7364 24 15.0127 24C10.0356 24 6 20.194 6 15.5C6 10.806 10.0356 7 15.0127 7C17.3222 7 19.4266 7.81964 21.0199 9.16295C21.551 9.61071 21.5952 10.3772 21.1205 10.8781C20.6457 11.379 19.8329 11.4208 19.3018 10.973C18.1632 10.0129 16.6624 9.42857 15.0127 9.42857Z" fill="#5CE5D4"/>
</svg>
